REM DIRINDEX 1\2,1\4,1\3\5,1\3\6,1\3\7
REM DIRNAME cjc083,folder01,folder02,folder03,folder04,folder05,folder06
TITLE ""
FILE "CD2Track40.mp3" MP3
  TRACK 01 AUDIO
    TITLE "0:"
    INDEX 01 00:00:00
  TRACK 02 AUDIO
    TITLE "4:cjc083_2164"
    INDEX 01 00:00:29
  TRACK 03 AUDIO
    TITLE "0:"
    INDEX 01 00:04:50
  TRACK 04 AUDIO
    TITLE "5:cjc083_2165"
    INDEX 01 00:05:10
  TRACK 05 AUDIO
    TITLE "0:"
    INDEX 01 00:06:57
  TRACK 06 AUDIO
    TITLE "6:cjc083_2166"
    INDEX 01 00:07:15
  TRACK 07 AUDIO
    TITLE "0:"
    INDEX 01 00:09:34
  TRACK 08 AUDIO
    TITLE "5:cjc083_2167"
    INDEX 01 00:09:73
  TRACK 09 AUDIO
    TITLE "0:"
    INDEX 01 00:11:46
  TRACK 10 AUDIO
    TITLE "6:cjc083_2168"
    INDEX 01 00:12:12
  TRACK 11 AUDIO
    TITLE "0:"
    INDEX 01 00:14:39
  TRACK 12 AUDIO
    TITLE "5:cjc083_2169"
    INDEX 01 00:15:11
  TRACK 13 AUDIO
    TITLE "0:"
    INDEX 01 00:17:12
  TRACK 14 AUDIO
    TITLE "6:cjc083_2170"
    INDEX 01 00:17:55
  TRACK 15 AUDIO
    TITLE "0:"
    INDEX 01 00:20:02
  TRACK 16 AUDIO
    TITLE "5:cjc083_2171"
    INDEX 01 00:20:45
  TRACK 17 AUDIO
    TITLE "0:"
    INDEX 01 00:21:74
  TRACK 18 AUDIO
    TITLE "6:cjc083_2172"
    INDEX 01 00:22:42
  TRACK 19 AUDIO
    TITLE "0:"
    INDEX 01 00:26:09
  TRACK 20 AUDIO
    TITLE "5:cjc083_2173"
    INDEX 01 00:26:52
  TRACK 21 AUDIO
    TITLE "0:"
    INDEX 01 00:28:00
  TRACK 22 AUDIO
    TITLE "6:cjc083_2174"
    INDEX 01 00:28:43
  TRACK 23 AUDIO
    TITLE "0:"
    INDEX 01 00:29:74
  TRACK 24 AUDIO
    TITLE "5:cjc083_2175"
    INDEX 01 00:30:40
  TRACK 25 AUDIO
    TITLE "0:"
    INDEX 01 00:31:63
  TRACK 26 AUDIO
    TITLE "6:cjc083_2176"
    INDEX 01 00:32:25
  TRACK 27 AUDIO
    TITLE "0:"
    INDEX 01 00:33:40
  TRACK 28 AUDIO
    TITLE "5:cjc083_2177"
    INDEX 01 00:34:08
  TRACK 29 AUDIO
    TITLE "0:"
    INDEX 01 00:35:25
  TRACK 30 AUDIO
    TITLE "6:cjc083_2178"
    INDEX 01 00:35:70
  TRACK 31 AUDIO
    TITLE "0:"
    INDEX 01 00:37:36
  TRACK 32 AUDIO
    TITLE "5:cjc083_2179"
    INDEX 01 00:38:14
  TRACK 33 AUDIO
    TITLE "0:"
    INDEX 01 00:39:45
  TRACK 34 AUDIO
    TITLE "6:cjc083_2180"
    INDEX 01 00:40:09
  TRACK 35 AUDIO
    TITLE "0:"
    INDEX 01 00:41:45
  TRACK 36 AUDIO
    TITLE "5:cjc083_2181"
    INDEX 01 00:42:16
  TRACK 37 AUDIO
    TITLE "0:"
    INDEX 01 00:43:29
  TRACK 38 AUDIO
    TITLE "6:cjc083_2182"
    INDEX 01 00:43:74
  TRACK 39 AUDIO
    TITLE "0:"
    INDEX 01 00:46:49
  TRACK 40 AUDIO
    TITLE "5:cjc083_2183"
    INDEX 01 00:47:15
  TRACK 41 AUDIO
    TITLE "0:"
    INDEX 01 00:48:22
  TRACK 42 AUDIO
    TITLE "6:cjc083_2184"
    INDEX 01 00:48:65
  TRACK 43 AUDIO
    TITLE "0:"
    INDEX 01 00:50:07
  TRACK 44 AUDIO
    TITLE "5:cjc083_2185"
    INDEX 01 00:50:54
  TRACK 45 AUDIO
    TITLE "0:"
    INDEX 01 00:51:71
  TRACK 46 AUDIO
    TITLE "6:cjc083_2186"
    INDEX 01 00:52:47
  TRACK 47 AUDIO
    TITLE "0:"
    INDEX 01 00:53:41
  TRACK 48 AUDIO
    TITLE "5:cjc083_2187"
    INDEX 01 00:54:11
  TRACK 49 AUDIO
    TITLE "0:"
    INDEX 01 00:55:57
  TRACK 50 AUDIO
    TITLE "6:cjc083_2188"
    INDEX 01 00:56:25
  TRACK 51 AUDIO
    TITLE "0:"
    INDEX 01 00:57:45
  TRACK 52 AUDIO
    TITLE "5:cjc083_2189"
    INDEX 01 00:58:11
  TRACK 53 AUDIO
    TITLE "0:"
    INDEX 01 00:59:38
  TRACK 54 AUDIO
    TITLE "6:cjc083_2190"
    INDEX 01 01:00:02
  TRACK 55 AUDIO
    TITLE "0:"
    INDEX 01 01:01:17
  TRACK 56 AUDIO
    TITLE "5:cjc083_2191"
    INDEX 01 01:01:56
  TRACK 57 AUDIO
    TITLE "0:"
    INDEX 01 01:03:47
  TRACK 58 AUDIO
    TITLE "6:cjc083_2192"
    INDEX 01 01:04:19
  TRACK 59 AUDIO
    TITLE "0:"
    INDEX 01 01:06:43
  TRACK 60 AUDIO
    TITLE "5:cjc083_2193"
    INDEX 01 01:07:14
  TRACK 61 AUDIO
    TITLE "0:"
    INDEX 01 01:08:23
  TRACK 62 AUDIO
    TITLE "6:cjc083_2194"
    INDEX 01 01:08:62
  TRACK 63 AUDIO
    TITLE "0:"
    INDEX 01 01:10:63
  TRACK 64 AUDIO
    TITLE "5:cjc083_2195"
    INDEX 01 01:11:33
  TRACK 65 AUDIO
    TITLE "0:"
    INDEX 01 01:12:44
  TRACK 66 AUDIO
    TITLE "6:cjc083_2196"
    INDEX 01 01:13:20
  TRACK 67 AUDIO
    TITLE "0:"
    INDEX 01 01:14:47
  TRACK 68 AUDIO
    TITLE "5:cjc083_2197"
    INDEX 01 01:15:17
  TRACK 69 AUDIO
    TITLE "0:"
    INDEX 01 01:16:32
  TRACK 70 AUDIO
    TITLE "6:cjc083_2198"
    INDEX 01 01:17:02
  TRACK 71 AUDIO
    TITLE "0:"
    INDEX 01 01:18:11
  TRACK 72 AUDIO
    TITLE "5:cjc083_2199"
    INDEX 01 01:18:51
  TRACK 73 AUDIO
    TITLE "0:"
    INDEX 01 01:20:14
  TRACK 74 AUDIO
    TITLE "6:cjc083_2200"
    INDEX 01 01:20:55
  TRACK 75 AUDIO
    TITLE "0:"
    INDEX 01 01:21:72
  TRACK 76 AUDIO
    TITLE "5:cjc083_2201"
    INDEX 01 01:22:42
  TRACK 77 AUDIO
    TITLE "0:"
    INDEX 01 01:23:54
  TRACK 78 AUDIO
    TITLE "6:cjc083_2202"
    INDEX 01 01:24:24
  TRACK 79 AUDIO
    TITLE "0:"
    INDEX 01 01:25:49
  TRACK 80 AUDIO
    TITLE "7:cjc083_2203"
    INDEX 01 01:27:08
  TRACK 81 AUDIO
    TITLE "0:"
    INDEX 01 01:37:30
